<svg xmlns="http://www.w3.org/2000/svg" id="Layer_2" viewBox="0 0 142.42 204.88">
  <defs>
    <style>
      .cls-2{stroke:#000;stroke-linecap:round;stroke-linejoin:round;stroke-width:4.98px;fill:none}
    </style>
  </defs>
  <g id="Layer_1-2">
    <path d="M136.9 123.63c-.27.87-.55 1.72-.85 2.56-4.51 12.66-12.51 23.17-22.58 30.76-.38.3-.78.58-1.17.86-.23.18-.47.35-.72.51-.04.04-.09.07-.14.1-.1.07-.21.14-.31.21-.31.21-.61.42-.92.62-.07.05-.13.09-.21.14-.33.21-.65.42-.98.63-.02.02-.07.04-.11.06-.38.26-.79.51-1.19.74-.45.28-.9.54-1.37.8-.36.21-.73.42-1.1.62l-.84.45c-.04.03-.08.05-.12.06-.37.21-.75.4-1.13.58-.56.28-1.13.56-1.71.83-.47.22-.95.44-1.44.65-.43.19-.86.37-1.29.54-.03.02-.07.04-.1.05-.15.06-.3.13-.45.18-.02.01-.04.02-.05.02-.44.18-.88.35-1.32.52-.49.19-1 .37-1.5.54-.12.05-.25.09-.38.13-.36.14-.72.25-1.08.37-.68.23-1.35.44-2.04.63-.48.14-.96.27-1.45.4-.9.25-1.81.47-2.73.67-.4.09-.79.17-1.2.25-1.18.24-2.37.45-3.57.62-.43.06-.85.13-1.28.17-1.74.22-3.5.37-5.27.44h-.2c-.27.02-.54.03-.81.03-.26 0-.52.02-.76.02-1.14.02-2.28.01-3.42-.02-1.15-.04-2.29-.11-3.44-.21-.57-.05-1.14-.11-1.72-.17-.28-.03-.56-.07-.84-.1-.24-.03-.47-.06-.71-.09-.08-.01-.15-.02-.22-.04-.56-.08-1.11-.16-1.67-.25h-.01c-.76-.13-1.52-.27-2.28-.43 0 0 0 0 0 0-2.23-.44-4.47-1.01-6.68-1.7-2.23-.7-4.39-1.49-6.49-2.4-.88-.38-1.75-.77-2.6-1.17-.52-.26-1.03-.51-1.54-.77-.49-.24-.97-.5-1.45-.76-.45-.24-.89-.48-1.32-.74l-1.08-.63c-.21-.13-.42-.25-.62-.38-1.45-.89-2.85-1.83-4.22-2.83-.37-.26-.74-.54-1.11-.82-2.83-2.15-5.47-4.49-7.89-7.04-.4-.41-.78-.83-1.16-1.24-.04-.04-.08-.08-.11-.12-.36-.39-.7-.79-1.04-1.18-.39-.44-.76-.89-1.12-1.34-.8-.98-1.56-1.97-2.3-2.99-.29-.39-.57-.78-.83-1.17-.41-.57-.79-1.15-1.17-1.74-.25-.38-.5-.78-.74-1.17-.28-.44-.55-.9-.82-1.35-.04-.08-.09-.16-.14-.24-.27-.47-.53-.94-.79-1.41-.26-.46-.51-.94-.75-1.41-.56-1.07-1.08-2.14-1.57-3.24-.21-.46-.4-.91-.59-1.37-.39-.9-.76-1.82-1.09-2.74-.3-.78-.58-1.56-.84-2.36-3.98-11.97-4.6-25.18-1.11-38.17.11-.42.23-.84.35-1.25.13-.44.26-.87.39-1.3.13-.43.27-.87.41-1.3 4.41-13.23 12.61-24.19 23.01-32.02.66-.5 1.33-.99 2.02-1.46 13.78-9.62 31.05-13.95 48.42-11.21.93.14 1.87.32 2.81.5 2.24.46 4.47 1.02 6.7 1.72 2.22.69 4.38 1.48 6.47 2.38h.01c.71.3 1.41.62 2.11.95h0c1.15.55 2.27 1.11 3.38 1.71.42.23.83.46 1.24.69.49.28.98.57 1.46.86.42.25.83.51 1.24.77.35.22.69.43 1.02.67.12.07.24.15.34.22.34.22.67.45 1.01.69.13.08.24.16.36.25.36.26.72.51 1.07.78.07.04.13.08.19.14.39.28.75.57 1.13.85.07.05.13.09.18.14.29.22.58.45.87.68.25.21.5.41.75.62.13.1.25.21.37.32.25.21.49.42.73.63.21.17.42.36.62.54.21.18.42.37.61.56.22.21.45.41.66.62.13.11.25.23.38.35.32.31.64.62.95.93.38.37.76.76 1.12 1.15.35.37.7.74 1.04 1.11.06.07.13.14.2.22.31.34.61.69.92 1.03.29.33.58.67.86 1.01.27.32.53.64.79.97 1.79 2.23 3.43 4.57 4.92 7 .27.45.55.91.81 1.37.16.29.33.58.49.88.36.62.7 1.27 1.03 1.9.24.47.48.94.71 1.42.23.48.46.96.68 1.44.21.46.42.93.62 1.39.02.04.04.07.05.11.2.47.39.94.58 1.41.2.49.39.98.57 1.47v.02c.3.78.57 1.56.83 2.34 3.98 11.96 4.6 25.15 1.13 38.13-.24.86-.49 1.73-.76 2.6Z" class="cls-2"/>
    <path d="M135.7 80.55c-2.62 1.58-5.38 2.95-8.27 4.14-2.88 1.18-5.88 2.16-8.96 2.94-.67.17-1.35.32-2.03.47-11.78 2.59-24.77 2.16-37.63-1.84C65.35 82.07 54 74.56 45.66 65.18c-.48-.54-.95-1.08-1.4-1.63-1.66-1.98-3.19-4.06-4.58-6.18-1.71-2.61-3.19-5.32-4.46-8.11C49 39.64 66.27 35.31 83.64 38.05c.93.14 1.87.32 2.81.5 2.24.46 4.47 1.02 6.7 1.72 2.22.69 4.38 1.48 6.47 2.38h.01c.71.3 1.41.62 2.11.95h0c1.15.55 2.27 1.11 3.38 1.71.42.23.83.46 1.24.69.49.28.98.57 1.46.86.42.25.83.51 1.24.77.35.22.69.43 1.02.67.12.07.24.15.34.22.34.22.67.45 1.01.69.13.08.24.16.36.25.36.26.72.51 1.07.78.07.04.13.08.19.14.39.28.75.57 1.13.85.07.05.13.09.18.14.29.22.58.45.87.68.25.21.5.41.75.62.13.1.25.21.37.32.25.21.49.42.73.63.21.17.42.36.62.54.21.18.42.37.61.56.22.21.45.41.66.62.13.11.25.23.38.35.32.31.64.62.95.93.38.37.76.76 1.12 1.15.35.37.7.74 1.04 1.11.06.07.13.14.2.22.31.34.61.69.92 1.03.29.33.58.67.86 1.01.27.32.53.64.79.97 1.79 2.23 3.43 4.57 4.92 7 .27.45.55.91.81 1.37.16.29.33.58.49.88.36.62.7 1.27 1.03 1.9.24.47.48.94.71 1.42.23.48.46.96.68 1.44.21.46.42.93.62 1.39.02.04.04.07.05.11.2.47.39.94.58 1.41.2.49.39.98.57 1.47v.02ZM111.44 158.42c-.1.07-.21.14-.31.21-.31.21-.61.42-.92.62-.07.05-.13.09-.21.14-.33.21-.65.42-.98.63-.02.02-.07.04-.11.06-.38.26-.79.51-1.19.74-.45.28-.9.54-1.37.8-.36.21-.73.42-1.1.62l-.84.45c-.04.03-.08.05-.12.06-.37.21-.75.4-1.13.58-.56.28-1.13.56-1.71.83-.47.22-.95.44-1.44.65-.43.19-.86.37-1.29.54-.03.02-.07.04-.1.05-.15.06-.3.13-.45.18-.02.01-.04.02-.05.02-.44.18-.88.35-1.32.52-.49.19-1 .37-1.5.54-.12.05-.25.09-.38.13-.36.14-.72.25-1.08.37-.68.23-1.35.44-2.04.63-.48.14-.96.27-1.45.4-.9.25-1.81.47-2.73.67-.4.09-.79.17-1.2.25-1.18.24-2.37.45-3.57.62-.43.06-.85.13-1.28.17-1.74.22-3.5.37-5.27.44h-.2c-.27.02-.54.03-.81.03-.26 0-.52.02-.76.02-1.14.02-2.28.01-3.42-.02-1.15-.04-2.29-.1-3.44-.21-.57-.05-1.14-.11-1.72-.17-.28-.03-.56-.07-.84-.1-.24-.03-.47-.06-.71-.09-.08-.01-.15-.02-.22-.04-.56-.08-1.11-.16-1.67-.25h-.01c-.76-.13-1.52-.27-2.28-.43 0 0 0 0 0 0-2.23-.44-4.47-1.01-6.68-1.7-2.23-.7-4.39-1.49-6.49-2.4-.88-.38-1.75-.77-2.6-1.17-.52-.26-1.03-.51-1.54-.77-.49-.24-.97-.5-1.45-.76-.45-.24-.89-.48-1.32-.74l-1.08-.63c-.21-.13-.42-.25-.62-.38-1.45-.89-2.85-1.83-4.22-2.83-.37-.26-.74-.54-1.11-.82-2.83-2.15-5.47-4.49-7.89-7.04-.4-.41-.78-.83-1.16-1.24-.04-.04-.08-.08-.11-.12-.36-.39-.7-.79-1.04-1.18-.39-.44-.76-.89-1.12-1.34-.8-.98-1.56-1.97-2.3-2.99-.29-.39-.57-.78-.83-1.17-.41-.57-.79-1.15-1.17-1.74-.25-.38-.5-.78-.74-1.17-.28-.44-.55-.9-.82-1.35-.04-.08-.09-.16-.14-.24-.27-.47-.53-.94-.79-1.41-.26-.46-.51-.94-.75-1.41-.56-1.07-1.08-2.14-1.57-3.24-.21-.46-.4-.91-.59-1.37-.39-.9-.76-1.82-1.09-2.74 2.6-1.56 5.37-2.94 8.25-4.11 2.36-.97 4.79-1.79 7.29-2.49.69-.19 1.39-.37 2.09-.55 12.19-2.96 25.78-2.7 39.24 1.5 12.86 4 23.79 11.02 32.02 19.81.48.52.96 1.03 1.42 1.56 2.11 2.38 4.02 4.89 5.72 7.5 1.7 2.59 3.19 5.3 4.46 8.07Z" class="cls-2"/>
    <path d="M50.02 60.61C61.5 49.7 76.33 43.27 91.68 42.94c1.9-.04 3.81 0 5.73.16h0c1.44.11 2.88.28 4.31.51h0c1.15.55 2.27 1.11 3.38 1.71.42.23.83.46 1.24.69.49.28.98.57 1.46.86.42.25.83.51 1.24.77.35.22.69.43 1.02.67.12.07.24.15.34.22.34.22.67.45 1.01.69.13.08.24.16.36.25.36.26.72.51 1.07.78.07.04.13.08.19.14.39.28.75.57 1.13.85.07.05.13.09.18.14.29.22.58.45.87.68.25.21.5.41.75.62.13.1.25.21.37.32.25.21.49.42.73.63.21.17.42.36.62.54.21.18.42.37.61.56.22.21.45.41.66.62.13.11.25.23.38.35.32.31.64.62.95.93.38.37.76.76 1.12 1.15.35.37.7.74 1.04 1.11.06.07.13.14.2.22.31.34.61.69.92 1.03.29.33.58.67.86 1.01.27.32.53.64.79.97 1.79 2.23 3.43 4.57 4.92 7 .27.45.55.91.81 1.37.16.29.33.58.49.88.36.62.7 1.27 1.03 1.9.24.47.48.94.71 1.42.23.48.46.96.68 1.44.21.46.42.93.62 1.39.02.04.04.07.05.11.2.47.39.94.58 1.41.2.49.39.98.57 1.47v.02c.3.78.57 1.56.83 2.34 3.98 11.96 4.6 25.15 1.13 38.13-.24.86-.49 1.73-.76 2.6-.27.87-.55 1.72-.85 2.56-4.51 12.66-12.51 23.17-22.58 30.76-.38.3-.78.58-1.17.86-.23.18-.47.35-.72.51-.04.04-.09.07-.14.1-.1.07-.21.14-.31.21-.31.21-.61.42-.92.62-.07.05-.13.09-.21.14-.33.21-.65.42-.98.63-.02.02-.07.04-.11.06-.38.26-.79.51-1.19.74-.45.28-.9.54-1.37.8-.36.21-.73.42-1.1.62l-.84.45c-.04.03-.08.05-.12.06-.37.21-.75.4-1.13.58-.56.28-1.13.56-1.71.83-.47.22-.95.44-1.44.65-.43.19-.86.37-1.29.54-.03.02-.07.04-.1.05-.15.06-.3.13-.45.18-.02.01-.04.02-.05.02-.44.18-.88.35-1.32.52-.49.19-1 .37-1.5.54-.12.05-.25.09-.38.13-.36.14-.72.25-1.08.37-.68.23-1.35.44-2.04.63-.48.14-.96.27-1.45.4-.9.25-1.81.47-2.73.67-.4.09-.79.17-1.2.25-1.18.24-2.37.45-3.57.62-.43.06-.85.13-1.28.17-1.74.22-3.5.37-5.27.44h-.2c-.27.02-.54.03-.81.03-.26 0-.52.02-.76.02-1.14.02-2.28.01-3.42-.02-1.15-.04-2.29-.1-3.44-.21-.57-.05-1.14-.11-1.72-.17-.28-.03-.56-.07-.84-.1-.24-.03-.47-.06-.71-.09-.08-.01-.15-.02-.22-.04-.56-.08-1.11-.16-1.67-.25h-.01c-1.31-.63-2.59-1.31-3.83-2.03h0c-1.66-.97-3.26-2.01-4.81-3.13-12.84-9.27-21.55-23.59-24.56-39.71M28.2 115.07c-.35-7.95.65-16.16 3.19-24.3 2.53-8.13 6.37-15.46 11.18-21.81.98-1.31 2.01-2.57 3.08-3.79" class="cls-2"/>
    <path d="M116.44 88.1c.16 1.68.26 3.37.3 5.08.17 7.59-.88 15.4-3.29 23.14s-5.99 14.79-10.44 20.93c-1.01 1.39-2.06 2.74-3.16 4.05-.35.42-.71.84-1.07 1.25-11.79 13.34-28.05 21.38-44.92 21.83-1.87.05-3.75 0-5.63-.13h0c-1.25-.09-2.52-.23-3.77-.42-.52-.26-1.03-.51-1.54-.77-.49-.24-.97-.5-1.45-.76-.45-.24-.89-.48-1.32-.74l-1.08-.63c-.21-.13-.42-.25-.62-.38-1.45-.89-2.85-1.83-4.22-2.83-.37-.26-.74-.54-1.11-.82-2.83-2.15-5.47-4.49-7.89-7.04-.4-.41-.78-.83-1.16-1.24-.04-.04-.08-.08-.11-.12-.36-.39-.7-.79-1.04-1.18-.39-.44-.76-.89-1.12-1.34-.8-.98-1.56-1.97-2.3-2.99-.29-.39-.57-.78-.83-1.17-.41-.57-.79-1.15-1.17-1.74-.25-.38-.5-.78-.74-1.17-.28-.44-.55-.9-.82-1.35-.04-.08-.09-.16-.14-.24-.27-.47-.53-.94-.79-1.41-.26-.46-.51-.94-.75-1.41-.56-1.07-1.08-2.14-1.57-3.24-.21-.46-.4-.91-.59-1.37-.39-.9-.76-1.82-1.09-2.74-.3-.78-.58-1.56-.84-2.36-3.98-11.97-4.6-25.18-1.11-38.17.11-.42.23-.84.35-1.25.13-.44.26-.87.39-1.3.13-.43.27-.87.41-1.3 4.41-13.23 12.61-24.19 23.01-32.02.66-.5 1.33-.99 2.02-1.46 13.78-9.62 31.05-13.95 48.42-11.21 1.13.56 2.25 1.16 3.33 1.79H87c1.62.96 3.2 1.99 4.71 3.1 12.74 9.29 21.28 23.75 24.08 40.04" class="cls-2"/>
    <path d="M94.45 39.75 54.87 166.86v33.59M20.74 202.39h68.25" class="cls-2"/>
    <path d="M53.32 11.37C41.48-.47 22.29-.47 10.45 11.37-.71 22.54 1.3 37.28 7.74 50.13l2.34 4.47 21.93 35.12S51.74 58.08 57.37 47c.23-.46.81-1.89.81-1.89 4.64-11.51 4.62-24.26-4.86-33.73Zm-9.75 31.94c-6.39 6.39-16.74 6.39-23.13 0C5.71 27.36 27.63 5.45 43.57 20.18c6.39 6.39 6.39 16.74 0 23.13Z" style="stroke:#000;stroke-linecap:round;stroke-linejoin:round;stroke-width:4.98px;fill:#fff"/>
  </g>
</svg>
