<svg xmlns="http://www.w3.org/2000/svg" viewBox="0 0 214.5 193.8">
  <path d="m117 172-4 3-11 12c-8 3-17-5-14-14 2-2 13-14 16-15 10-4 17 8 13 14Zm-13-27c-2 4-14 15-19 20-11 11-22-1-17-10 2-4 15-16 19-19 3-4 7-7 13-4 4 2 7 7 4 13Zm-58-2c0-9 5-11 17-23 4-4 14-16 20-16 9 0 13 9 9 15l-29 29c-7 7-17 2-17-5Zm16-35c0 1-19 28-30 23-4-1-7-6-6-11 1-4 13-15 18-20 11-11 22 1 18 8Zm61-56c15 0 13 6 31 6 8 0 17-4 19-11l-3-2c-10 3-12 10-34 3-22-8-26 4-36 12-7 7-20 9-25-1l30-30c10-10 18-21 39-22 32-1 63 34 63 63 0 18-19 37-23 37-3 0-38-40-48-48l-5 3c4 7 29 31 37 39l5 7c6 7 19 14 10 24-12 13-32-29-43-28-3 6 5 11 13 20 5 5 23 18 11 26-8 7-14-1-20-7l-11-11c-2-2-11-15-13-7-1 2-1 2 1 4 5 7 24 22 25 29 1 8-8 16-17 7-6-6-9-13-18-15 0-8 3-10-1-17-2-4-7-7-11-10 0-7 3-12-1-19-10-15-25-3-28-3-6-7-6-12-17-12-17 0-16 20-27 9l-5-6C9 79 2 64 11 45l8-14C28 19 46 7 63 7c13 0 28 9 33 19-4 6-16 18-23 25-18 19 16 28 33 14l2-2 1-1 2-3h1c3-3 7-7 11-7ZM0 58c0 30 14 35 23 46 6 7-6 9-3 22 1 4 3 7 6 10l9 4h1c6 2 2 13 14 17l4 1 3 1c4 1 3 7 7 11 8 9 11 3 15 8 6 8 2 16 22 16 8 0 19-17 22-20 6-4 19 11 30-9 5-11 14 0 22-18 4-11 18-3 18-25 0-5-7-6 0-13 22-21 28-39 13-68-8-14-17-24-31-33a54 54 0 0 0-65 6c-4 4-3 4-8 6C83 1 66-6 38 7 25 13 14 24 7 36c-2 3-7 18-7 22Z" style="fill-rule:evenodd"/>
</svg>
