<svg xmlns="http://www.w3.org/2000/svg" viewBox="0 0 159.27 209.34">
  <path d="M159.14 28.87c-.04-.13-.01-.13-.2-.43-.02-.05-.09-.21-.34-.46C129.54-1.06 131.2.41 130.42.15 129.6-.13 135.15.1 20.48.02c-1.25 0-2.27 1.01-2.27 2.27v20.48H2.28C1.02 22.77 0 23.78 0 25.04v182.02c0 1.26 1.02 2.28 2.28 2.28h127.41c1.26 0 2.28-1.02 2.28-2.28v-15.93h25.02c1.26 0 2.28-1.02 2.28-2.28-.02-166.51.04-159.29-.04-159.71-.02-.09-.06-.18-.09-.27ZM131.97 7.78l19.54 19.54h-19.54V7.78Zm-4.55 197H4.55V27.32H18.2v161.54c0 1.26 1.02 2.28 2.28 2.28h106.93v13.65Zm-104.66-18.2V4.57h104.66V29.6c0 1.25 1.02 2.27 2.28 2.27h25.03v154.72H22.75Z"/>
  <path d="M79.64 141.08H40.96c-1.26 0-2.28 1.02-2.28 2.28v11.37h-4.55c-1.26 0-2.28 1.02-2.28 2.28v13.65c0 1.26 1.02 2.28 2.28 2.28h38.68c1.25 0 2.27-1.02 2.27-2.28v-11.38h4.55c1.26 0 2.27-1.02 2.27-2.27v-13.65c0-1.26-1.02-2.28-2.27-2.28Zm-9.1 27.3H36.41v-9.1h34.13v9.1Zm6.83-13.65H43.24v-9.1h34.13v9.1ZM136.51 113.77h-2.28V102.4c0-1.26-1.02-2.28-2.27-2.28H93.28c-1.26 0-2.28 1.02-2.28 2.28v13.65c0 1.26 1.02 2.28 2.28 2.28h2.27v9.1h-2.27c-1.26 0-2.28 1.03-2.28 2.28v11.38h-2.28c-1.26 0-2.28 1.02-2.28 2.28v13.65c0 1.26 1.02 2.27 2.28 2.27H91v11.38c0 1.26 1.02 2.28 2.28 2.28h38.68c1.25 0 2.27-1.02 2.27-2.28v-13.65c0-1.26-1.02-2.28-2.27-2.28h-2.28v-9.1h2.28c1.25 0 2.27-1.02 2.27-2.27v-11.38h2.28c1.26 0 2.28-1.02 2.28-2.28v-13.65c0-1.26-1.02-2.28-2.28-2.28Zm-40.96-9.1h34.13v9.1H95.55v-9.1Zm34.13 63.7H95.55v-9.1h34.13v9.1Zm-4.55-13.65H91v-9.1h34.13v9.1Zm4.55-13.65H95.55v-9.1h34.13v9.1Zm4.55-13.66H100.1v-9.1h34.13v9.1ZM58.21 61.98h6.46v16.87h4.89V61.98H76v-4.29H58.21v4.29zM85.21 57.69l-7.72 21.16h5.01l1.61-4.74h6.59l1.64 4.74h5.01l-7.72-21.16h-4.41Zm-.32 13.05 2.53-7.48 2.48 7.48h-5.01ZM114.9 57.69l-4.62 7.3-4.62-7.3h-5.31l7.33 10.73-7.09 10.43h5.3l4.39-7 4.38 7h5.27l-7.09-10.43 7.33-10.73h-5.27z"/>
  <path d="M47.78 91.02h81.91c1.26 0 2.28-1.01 2.28-2.27V47.79c0-1.26-1.02-2.28-2.28-2.28H47.78c-1.26 0-2.28 1.02-2.28 2.28v40.96c0 1.26 1.02 2.27 2.28 2.27Zm2.27-40.95h77.36v36.4H50.05v-36.4Z"/>
</svg>
