<svg xmlns="http://www.w3.org/2000/svg" viewBox="0 0 767.91 768"><defs><style>.a{fill:#020100;}.b{fill:#fff;}</style></defs><title>Asset 1</title><path class="a" d="M756.42,476.89C705.14,682.61,496.78,807.8,291,756.5S-39.81,496.85,11.5,291.15,271.12-39.8,476.8,11.49,807.71,271.17,756.42,476.9Z"/><path class="b" d="M553.28,329.29c7.65-51.1-31.26-78.57-84.46-96.9l17.26-69.22-42.14-10.5-16.8,67.4c-11.08-2.76-22.45-5.37-33.76-7.95l16.92-67.84-42.11-10.5L350.92,203c-9.16-2.09-18.17-4.15-26.9-6.32l.05-.22L266,181.93l-11.21,45s31.26,7.17,30.6,7.61c17.07,4.26,20.15,15.55,19.64,24.51l-19.66,78.86a35.45,35.45,0,0,1,4.38,1.4c-1.41-.34-2.9-.73-4.45-1.1L257.7,448.68c-2.08,5.19-7.38,13-19.31,10,.42.62-30.62-7.64-30.62-7.64l-20.92,48.24L241.68,513c10.2,2.55,20.2,5.23,30,7.75l-17.43,70,42.09,10.5L313.64,532c11.5,3.12,22.66,6,33.58,8.71l-17.21,69,42.14,10.5,17.44-69.88c71.85,13.59,125.88,8.11,148.62-56.88,18.33-52.33-.91-82.51-38.71-102.19,27.53-6.35,48.27-24.46,53.8-61.86h0ZM457,464.29c-13,52.33-101.12,24-129.69,16.95l23.14-92.76C379,395.61,470.62,409.72,457,464.29Zm13-135.76c-11.88,47.6-85.21,23.42-109,17.49l21-84.13c23.78,5.93,100.39,17,88,66.64Z"/></svg>