<svg xmlns="http://www.w3.org/2000/svg" id="Layer_2" viewBox="0 0 212.6 213.4">
  <defs>
    <style>
      .cls-1{fill:#000; fill-rule:evenodd}
    </style>
  </defs>
  <g id="Layer_1-2">
    <path d="M8 204 7 27C7 13 5 8 13 8h117l7 2 1 189c0 4 0 5-3 6-4 2-86 1-96 1s-24 2-31-2ZM1 7c0 22-2 199 0 205 8 2 105 1 129 1 5 0 15 1 15-4V7c0-9-6-6-12-6H13C7 1 1-3 1 7ZM187 48c3 14 1 92 1 112 0 15-19 22-19-5V51c1-4 3-4 7-5l11 2Zm-16-22c11-1 21-1 16 13h-14c-6 0-4-10-2-13Zm-9-3v135c0 22 12 15 13 30 0 9-2 4 4 7 6-8-1-10 6-15 15-13 10-23 10-57V57c0-9 1-13 9-8v28c0 9-2 22 7 19 3-5 1-41 1-50 0-10-8-5-16-7-3-10 4-22-8-21-16 1-26-2-26 5Z" class="cls-1"/>
    <path d="M19 85c5 1 6-1 8-3 9-10 22-19 26-23 3-3 16-17 20-16 2 0 29 24 29 28v51c0 3-3 5-6 5-62 0-54 5-54-18 0-7 1-16-1-23-6 1-7 3-7 8v35c0 4 3 6 7 6 15 0 55 2 67-1 2-14 1-36 1-50 0-5-1-7 4-6s6 11 12 6c5-6-11-13-15-19-6-10 6-31-7-30-2 8-1 12-2 19-6-1-8-4-12-8l-10-9c-7-7-8-4-18 4L36 63 26 73c-8 7-8 5-7 12Z" class="cls-1"/>
    <path d="M63 93c0-5 2-5 7-5 8 0 10-1 10 6 0 5 1 10-4 10-13 0-13 2-13-11Zm-7 17c7 4 13 2 24 2s7-1 7-27l-1-4c-6-1-27-3-30 2v27ZM98 179H74c-8 0-39-2-44 3 1 5 2 4 7 4 12 0 73 1 75-1 7-8-8-6-14-6ZM110 165l4-2v-3l-5-2H36c-5 0-5 1-6 5l5 2h75Z" class="cls-1"/>
  </g>
</svg>
