<svg xmlns="http://www.w3.org/2000/svg" id="Layer_2" viewBox="0 0 206.6 203.2">
  <defs>
    <style>
      .cls-1{fill-rule:evenodd}
    </style>
  </defs>
  <g id="Layer_1-2">
    <path d="M9 94c2-8 15-15 22-23l1-1 58-51c19-15 8-17 40 12l11 10c7 5 12 11 17 13 5-7 3-7 3-21 0-15-2-22 5-24 4-1 10-2 14 0 9 7-5 59 6 71 4 5 10 7 13 14-5 5-5 3-8 9-5 0-5 0-9 2-3 13 2 75 0 85-3 9-21 6-37 6H59c-42 0-34 5-34-51l-1-40c-13-2-8-6-15-11Zm-9-1c3 6 8 12 13 17l5 5v68c0 8 1 18 13 20h135c31 0 23-16 22-76 0-17 2-13 11-23 12-14 9-12-7-27-4-4-4-6-4-14l1-32-1-28c-3-2-26-1-32-1-4 8 0 35-3 37s-12-9-17-13l-17-14C106-1 105-3 96 5l-11 9-21 19-34 31C22 70 3 86 0 93Z" class="cls-1"/>
    <path d="M53 112c0-11 10-26 16-32 14-13 39-18 56-9l7 5 7 5c11 11 15 24 15 40 0 33-49 69-86 32-14-14-15-23-15-41Zm-7 3c-2 53 61 80 98 45 23-23 23-59 1-83-34-36-97-12-99 38Z" class="cls-1"/>
    <path d="M120 130c-5 17-29 1-36 6 1 9 11 4 16 11 2 5-1 6 3 11 6-2 3-5 5-12 6-4 14-2 17-11 9-23-27-18-34-24s-3-17 21-12c4 1 5 3 10 2 3-5-1-7-8-8-9-2-7-5-7-14-13-6 2 9-14 13-7 2-14 8-12 17 5 18 30 6 39 21Z" class="cls-1"/>
  </g>
</svg>
