<svg xmlns="http://www.w3.org/2000/svg" id="Layer_2" viewBox="0 0 219.7 220.2">
  <defs>
    <style>
      .cls-1{fill-rule:evenodd}
    </style>
  </defs>
  <g id="Layer_1-2">
    <path d="M155 47c0-3 1-4 4-4h31c3 0 4 1 4 4v159c0 9-4 7-20 7-15 0-19 2-19-7V47ZM78 204c0-5 0-6 6-6l9 1c2 5 2 9-1 14-15 1-14 0-14-9Zm-9 8c-5 3-24 1-32 1-15 0-13 1-13-16 1-27-2-176 2-189 8-2 49-1 60-1 3 0 58-1 60 1 3 5 2 90 2 103 0 19 2 91-2 102h-42c-7-11 4-21-10-22h-8l-14 1c-3 7 0 14-3 20Zm151 3c-7-3-11-1-17-3-5-4 2-162-2-175-10-3-42 1-45-3-4-8 0-25-2-33L25 0l-6 2c-4 4-2 43-2 51v159c-7 4-18-2-17 5 2 4 0 3 6 3h213l1-5Z" class="cls-1"/>
    <path d="m38 72 6 1c29 0 63 2 91-1-1-6-2-6-7-6H49s-11-3-11 6Zm-1 81 1 5c7 2 71 1 88 1 12 0 9-2 9-4-1-2-1-3-4-3-13 0-87-1-94 1Zm0 23c2 7 5 5 21 5h73c5-1 4-1 4-4-1-2-1-3-4-3-10 0-91-2-94 2Zm0-149c5 5 13 3 22 3 16 0 68 2 76-1 0-5-1-6-6-6H41c-4 2-2 2-4 4Zm0 86c3 5 11 3 22 3 18 0 65 2 76-1-1-4-1-6-5-6H44c-4 0-7 0-7 4Zm0 22c3 4 13 3 23 3h71c5-1 4-1 4-4-1-3-2-3-5-3H44c-4 0-7 0-7 4Zm0-46c1 9 6 4 23 5 25 2 24 0 49 0 9 0 18 1 26-1 0-8-5-5-11-5-11 1-83-3-87 1Zm0-40c2 1 3 3 7 3h61c6-1 7-2 15-1 7 0 9 2 15-2-2-8-5-4-11-4H46c-7 0-5-2-9 4Zm0 152c4 3 18 3 23 1 1-8 1-6-18-6-5 0-5 1-5 5Zm76-5-1 6c6 1 18 2 23-1 1-7-5-6-19-5h-3Zm57-18c0 15-1 13 6 13 1-3 3-17-2-17-3 0-4 1-4 4Zm5-23c3-4 2-5 2-13 0-7-6-7-7 0 0 7-1 12 5 13Zm-4-39 5 1c2-4 2-13-1-18-4 1-4 1-5 6v11h1Zm6-40-1-13c-5 0-7 0-6 12 1 7 7 6 7 1Z" class="cls-1"/>
  </g>
</svg>
