<svg xmlns="http://www.w3.org/2000/svg" id="Layer_2" viewBox="0 0 210.6 211.6">
  <defs>
    <style>
      .cls-1{fill-rule:evenodd}
    </style>
  </defs>
  <g id="Layer_1-2">
    <path d="M110 166c0-3 0-3 2-5 1-4 3-3 9-9l12-11c5-5 20-20 24-22l16 13c4 3 14 10 14 16v49c0 6-2 7-8 7-12 0-42 2-52-1-2-12 2-28-2-40-6 1-5 4-5 10 0 5 1 28-2 30-11 11-8-28-8-37Zm-16-6c0-5 38-40 42-41 3 2 2 1 4 5l-33 31c-21 20-4 6-4 23 0 12 2 19-2 26-6 0-7-1-7-6v-38Zm-18 8h5l5-2c3 10 2 25 2 36 0 5-2 9 6 9h97c3-6 3-2 3-12v-44c7-3 7 9 14 7 8-3-5-12-7-14-11-9-7-8-7-28-1-6 0-7-5-8-4 3-2 12-3 20-10-1-19-21-29-21-7 0-7 10-15 3-10-7-10-1-22 9l-7 7-13 11-20 19c-3 3-4 3-4 8ZM102 41c17 0 16-19 32 2 4 6 1 4 3 9 1 5 2 3 5 5 0 5 0 18-4 21-4 2-5-1-7 5-12 32-37 38-52 17-4-6-8-13-10-21-5-1-7 0-9-5-5-19 0-16 2-19 4-3 1-3 3-8 0-4 5-7 10-7 9-1 11 1 27 1Zm-38-7c0-6 2-8 4-12 3-4 5-5 8-7 6-4 7-2 14-3 5-1 3-5 10-5 8-1 36 8 36 24-9 1-7-7-18-6l-5 4c-3 3-2 2-5 3-4 2-9 3-15 2-6 0-11-2-16-1-8 0-8 3-13 1ZM51 57l3 21c3 10 7 2 12 13 19 40 54 33 67 5l3-6c2-6 0-3 5-5 6-4 6-6 7-14 0-6 2-11 0-17-2-5-3-2-4-6V37c0-30-41-43-54-35-7 5-32 5-34 33v13c-1 4-5 5-5 9ZM0 163l3 38c1 6 0 8 5 9 8 0-4-43 0-54l4-9 3-3c11-11 38-5 54-17 2-2 8-6 7-10-2-7-8 2-10 4-16 12-42 5-55 17-6 5-11 13-11 25Z" class="cls-1"/>
    <path d="M148 169c0-6 4-5 13-5s4 15 3 17l-5 1c-13 0-11 1-11-13Zm-7-10c-1 7-4 30 5 30 31 0 27 3 27-25 0-9-7-6-27-6l-5 1ZM111 87c-6 1-5 3-10 3s-4-2-10-3c-3 12 14 11 18 8s3-4 2-8ZM113 66c2-1 8 0 6-8-2-5-1-1-3-3-6 2-4 7-3 11ZM83 60l1 6c5-1 7-3 5-11h-5l-1 5Z" class="cls-1"/>
  </g>
</svg>
