<svg xmlns="http://www.w3.org/2000/svg" viewBox="0 0 2488.81 2500"><defs><style>.a{fill:#26bf59;}.b{fill:#fff;}</style></defs><title>Asset 3</title><path class="a" d="M2126.2,363.3h0C1892.24,129.15,1581.09.13,1249.6,0,566.57,0,10.66,555.69,10.39,1238.73A1236.32,1236.32,0,0,0,175.8,1858.05L0,2500l656.92-172.26a1238.78,1238.78,0,0,0,592.19,150.78h.51c683,0,1238.91-555.76,1239.19-1238.8C2488.94,908.71,2360.17,597.46,2126.2,363.3Z"/><path class="b" d="M1945.84,554.33c184,184.2,285.33,429,285.23,689.39-.23,537.31-437.49,974.45-974.74,974.45h-.4a973.45,973.45,0,0,1-496.12-135.83l-35.6-21.11L355.29,2158l98.47-359.58-23.17-36.87a972,972,0,0,1-149-518.58c.22-537.28,437.49-974.38,975.16-974.38C1517.06,268.66,1761.81,370.15,1945.84,554.33Z"/><path class="a" d="M1814.58,1498.14h0c-31-15.49-183.2-90.38-211.58-100.71s-49-15.49-69.67,15.5-80,100.71-98,121.37-36.12,23.24-67.09,7.74-130.73-48.17-249-153.63C1027.16,1306.34,965,1205,947,1174s-1.92-47.74,13.58-63.17c13.93-13.87,31-36.16,46.45-54.23s20.64-31,31-51.64,5.16-38.74-2.58-54.24-69.67-167.85-95.47-229.82c-25.13-60.36-50.66-52.19-69.67-53.14-18-.89-38.7-1.09-59.34-1.09s-54.19,7.75-82.57,38.74S619.94,811.26,619.94,963.62s110.95,299.54,126.43,320.2,218.34,333.31,528.95,467.39c73.87,31.89,131.55,50.93,176.51,65.21,74.18,23.55,141.68,20.22,195,12.26,59.49-8.89,183.19-74.89,209-147.19s25.8-134.28,18.06-147.19S1845.54,1513.64,1814.58,1498.14Z"/></svg>